<svg xmlns="http://www.w3.org/2000/svg" width="156" height="56" viewBox="0 0 156 56" fill="none">
  <rect opacity="0.01" x="0.5" y="0.5" width="155" height="55" fill="#D8D8D8" stroke="#979797"/>
  <path fill-rule="evenodd" clip-rule="evenodd" d="M146.162 13.2409C141.953 13.2409 139.585 15.3756 138.428 17.8752H138.323V13.8659H132.325V15.3126C134.025 18.3544 134.986 21.8693 134.986 25.6474C134.986 29.4238 134.025 32.9395 132.325 35.9804V38.8591H138.639V25.2169C138.639 21.8845 140.268 18.8645 144.425 18.8645C148.845 18.8645 149.056 23.4465 149.056 26.2053V38.8591H155.369V23.0821C155.369 17.9789 152.948 13.2409 146.162 13.2409Z" fill="#4C5459"/>
  <path fill-rule="evenodd" clip-rule="evenodd" d="M0 13.8659H5.99167V17.7715H6.09682C7.20066 15.4279 9.61863 13.2409 13.8232 13.2409C17.7115 13.2409 20.393 14.7515 21.7067 17.8747C23.5466 14.6988 26.2272 13.2409 30.0112 13.2409C36.7389 13.2409 39.1041 17.9789 39.1041 23.9673V38.8591H32.7969V24.696C32.7969 21.5724 31.8511 18.8645 28.1194 18.8645C24.177 18.8645 22.7054 22.0923 22.7054 25.3206V38.8591H16.3987V23.9673C16.3987 20.8951 15.1369 18.8645 12.088 18.8645C7.93625 18.8645 6.30667 21.8845 6.30667 25.2173V38.8591H0V13.8659Z" fill="#4C5459"/>
  <path fill-rule="evenodd" clip-rule="evenodd" d="M58.9355 35.4865H58.7777C56.9979 38.3077 54.0642 39.5609 50.7128 39.5609C46.0515 39.5609 41.5481 37.002 41.5481 32.0402C41.5481 23.894 51.0798 23.3192 57.3639 23.3192H58.9355V22.6412C58.9355 19.5595 56.5258 17.9404 53.1739 17.9404C50.5559 17.9404 48.1466 18.9856 46.4702 20.5518L43.1714 17.262C45.9472 14.4412 49.8747 13.2409 53.8552 13.2409C64.5915 13.2409 64.5915 20.9697 64.5915 24.5209V38.9341H58.9355V35.4865ZM58.5691 27.7062H57.2596C53.8025 27.7062 47.8327 27.9676 47.8327 31.5703C47.8327 33.8683 50.1894 34.8601 52.2323 34.8601C56.5258 34.8601 58.5691 32.6146 58.5691 29.1163V27.7062Z" fill="#4C5459"/>
  <path fill-rule="evenodd" clip-rule="evenodd" d="M91.5749 25.7828C91.5749 23.1536 92.0342 20.6497 92.8795 18.3405C90.7446 15.2142 87.2299 13.2409 82.6475 13.2409C79.0914 13.2409 75.748 14.6095 73.8902 17.6626H73.7849V13.8728H67.7338V51.1418H74.103V35.9283H74.262C75.5885 37.5603 78.1358 39.7714 82.9123 39.7714C87.4409 39.7714 91.1014 37.5264 93.2213 34.0273C92.1482 31.4623 91.5749 28.6754 91.5749 25.7828ZM81.3744 34.0865C76.7036 34.0865 73.8902 30.4544 73.8902 26.5064C73.8902 22.5588 76.7036 18.9258 81.3744 18.9258C86.0442 18.9258 88.8567 22.5588 88.8567 26.5064C88.8567 30.4544 86.0442 34.0865 81.3744 34.0865Z" fill="#4C5459"/>
  <mask id="mask0_0_3" style="mask-type:luminance" maskUnits="userSpaceOnUse" x="91" y="6" width="42" height="50">
    <path fill-rule="evenodd" clip-rule="evenodd" d="M91.8398 55.9421H132.313V6.32987H91.8398V55.9421H91.8398Z" fill="white"/>
  </mask>
  <g mask="url(#mask0_0_3)">
    <path fill-rule="evenodd" clip-rule="evenodd" d="M124.76 25.5268C124.76 31.9378 119.566 37.1346 113.159 37.1346C106.753 37.1346 101.559 31.9378 101.559 25.5268C101.559 19.1161 106.753 13.9194 113.159 13.9194C119.566 13.9194 124.76 19.1161 124.76 25.5268ZM91.8398 55.9423L105.581 43.1402C114.386 46.9347 124.831 43.6152 129.742 35.1034C135.035 25.9296 131.894 14.1995 122.726 8.90285C113.557 3.60615 101.833 6.74948 96.5409 15.9233C92.211 23.427 93.5258 32.6385 99.1622 38.6427L91.8398 55.9423Z" fill="#98CA02"/>
  </g>
</svg>